
<svg width="160" height="160" viewBox="0 0 160 160" fill="none" xmlns="http://www.w3.org/2000/svg">
<path d="M31.7216 90.7457H41.784V104.206C45.1915 104.274 48.6002 104.167 51.9968 103.886V73.8433C51.9896 72.6155 51.4951 71.4408 50.6219 70.5776C49.7488 69.7144 48.5686 69.2333 47.3408 69.2401H41.7408V83.0257H31.7216V73.8433C31.7182 73.2354 31.5952 72.6341 31.3594 72.0738C31.1237 71.5135 30.7799 71.0051 30.3477 70.5777C29.9155 70.1502 29.4034 69.8121 28.8405 69.5826C28.2776 69.3531 27.675 69.2367 27.0672 69.2401H21.4672V100.6C24.7819 101.864 28.2206 102.776 31.7264 103.32L31.7216 90.7457Z" fill="#EC2227"/>
<path d="M61.0801 66.504H55.8689V74.9024H65.7345V71.1056C65.7273 69.8782 65.2329 68.704 64.3601 67.841C63.4873 66.9781 62.3075 66.4972 61.0801 66.504Z" fill="#EC2227"/>
<path d="M65.7345 78.4128H55.8705V103.509C58.9766 103.159 62.2646 102.668 65.7345 102.037V78.4128Z" fill="#EC2227"/>
<path d="M127.896 105.229C130.613 105.229 133.098 104.787 135.35 103.904C135.847 103.651 136.232 103.221 136.429 102.7C136.626 102.178 136.621 101.602 136.416 101.083L135.776 99.4512C135.6 98.9568 135.24 98.5491 134.772 98.3128C134.303 98.0766 133.761 98.0299 133.259 98.1824C131.434 98.7648 129.817 99.056 128.408 99.056C126.818 99.056 125.489 98.7056 124.421 98.0048C123.353 97.304 122.763 96.4224 122.651 95.36H137.174C137.533 95.3623 137.878 95.225 138.137 94.977C138.395 94.7291 138.547 94.3901 138.56 94.032C138.56 89.2502 137.512 85.5702 135.416 82.992C133.32 80.4139 130.308 79.127 126.379 79.1312C122.68 79.1312 119.689 80.335 117.405 82.7424C115.121 85.1499 113.979 88.2742 113.979 92.1152C113.979 96.1472 115.268 99.3558 117.845 101.741H117.859C120.386 102.704 122.855 103.811 125.254 105.056C126.13 105.172 127.013 105.23 127.896 105.229ZM123.712 86.4144C124.069 86.0482 124.497 85.7597 124.971 85.5669C125.445 85.3742 125.953 85.2814 126.464 85.2944C126.982 85.2841 127.496 85.3779 127.977 85.5703C128.458 85.7627 128.895 86.0498 129.262 86.4144C130.027 87.1611 130.525 88.1744 130.755 89.4544H122.349C122.522 88.1744 122.976 87.1611 123.712 86.4144Z" fill="#EC2227"/>
<path d="M95.6127 85.032H99.4751L99.4495 97.8241C102.827 98.0609 106.109 98.8385 109.286 99.5361L109.25 84.976C109.25 84.976 112.744 84.9856 112.746 84.976C112.747 84.9664 113.891 80.816 118.496 78.416H111.069C110.799 78.4174 110.533 78.3621 110.286 78.2538C110.04 78.1454 109.819 77.9864 109.638 77.7871C109.457 77.5877 109.32 77.3525 109.235 77.0968C109.151 76.841 109.122 76.5704 109.149 76.3024C109.293 74.8976 110.04 73.2992 112.69 73.2224C113.707 73.192 114.803 73.4 115.982 73.7552L118.08 67.68C116.349 67.0656 114.88 66.6592 113.664 66.4672C112.494 66.2761 111.311 66.1787 110.126 66.176C106.693 66.176 104.06 67.0171 102.227 68.6992C100.395 70.3814 99.4773 72.7931 99.4751 75.9344V78.4096H95.6031V83.0608L95.6127 85.032Z" fill="#EC2227"/>
<path d="M98.6543 60.8752C97.8239 56.984 95.0031 56.1984 93.2591 56.088C89.8527 55.8736 87.1791 58.216 87.1791 58.2176C87.2383 58.1648 86.9519 57.5632 86.9183 57.488C86.804 57.2362 86.6681 56.9947 86.5119 56.7664C86.2023 56.3056 85.8114 55.905 85.3583 55.584C84.3759 54.8832 82.9455 54.6976 82.0255 55.0496C80.3887 55.6736 79.0735 56.9696 79.0063 58.7296C78.9631 59.7792 79.2623 61.2112 79.7679 62.1344C80.7279 63.8848 81.9359 64.2976 82.4095 64.0752C82.8831 63.8528 82.6255 62.9968 82.0351 61.9696C81.5871 61.184 80.9887 59.4096 81.1439 58.52C81.2719 57.7904 81.8655 57.2016 82.5359 56.92C82.9058 56.7534 83.3179 56.7042 83.7167 56.7788C84.1154 56.8535 84.4817 57.0485 84.7663 57.3376C85.3328 57.8971 85.7446 58.5939 85.9615 59.36C86.0888 59.7648 86.1846 60.1789 86.2479 60.5984C86.3215 61.0688 86.4703 61.7088 86.3871 62.1776C86.6164 61.2458 87.1019 60.3967 87.7887 59.7264C88.0047 59.5424 88.2111 59.3584 88.4287 59.1856C89.0835 58.7352 89.8235 58.4232 90.6031 58.2688C90.9549 58.208 91.3127 58.1902 91.6687 58.216C93.2159 58.3456 94.6239 59.496 94.9663 60.9904C95.7983 64.6448 93.0543 65.3584 91.7407 66.0416C84.9183 69.584 87.4719 73.936 87.4719 73.936C87.4719 73.936 88.3183 69.8192 92.1983 68.6208C95.5407 67.5856 99.7423 65.968 98.6543 60.8752Z" fill="#EC2227"/>
<path d="M92.6288 97.4289V78.4128H82.76V97.9537C85.2448 97.611 87.7494 97.432 90.2576 97.4177C91.0464 97.4081 91.8384 97.4177 92.6288 97.4289Z" fill="#EC2227"/>
<path d="M79.4832 71.9024V70.9968C79.4832 68.4528 77.4032 66.472 74.832 66.472H69.6176V100.986C72.8597 99.9991 76.1531 99.1893 79.4832 98.56V71.9024Z" fill="#EC2227"/>
<path d="M79.4832 98.7328V98.5728C76.1531 99.1992 72.8596 100.007 69.6176 100.992V101.28C72.855 100.243 76.1488 99.3906 79.4832 98.7279" fill="#EC2227"/>
</svg>
